# File created by Blade
# Date/Time:  Wed Jan 21 16:33:30 2015
# Frame Rate: 120.000 fps
#------------------------------------------------------
:FULLY-SPECIFIED
:DEGREES
833
root 27.310143 24.602534 -25.633115 -71.150199 92.240810 3.140807
Spine -48.888713 -0.441307 4.464798
Head -63.449156 5.724544 -0.982020
LeftShoulder -21.376136 -60.280578 52.768238
LeftArm 28.033672 -43.448109 12.572017
LeftForeArm -23.409925 -0.000000 10.559917
LeftHand -3.770536 -0.000000 96.807242
LeftHandThumb1 -26.253704 0.000000 33.147579
RightShoulder -11.584964 25.646611 -38.460208
RightArm -3.729746 73.138169 -35.970746
RightForeArm -14.671977 -0.000000 15.467318
RightHand -1.932652 -0.000000 -101.708486
RightHandThumb1 -24.326973 -0.000000 -32.862282
LeftUpLeg 10.046197 5.150751 10.832395
LeftLeg 86.239399 -0.000000 -0.000000
LeftFoot -41.172178 26.488928 -16.700804
LeftToeBase 23.620054 -0.000000 -0.000000
RightUpLeg 10.209049 4.547986 -10.560277
RightLeg 85.286657 -0.000000 -0.000000
RightFoot -40.665375 -30.583317 23.906527
RightToeBase 20.904972 -0.000000 -0.000000
834
root 27.331441 24.596224 -25.631935 -71.413268 92.250012 2.890187
Spine -48.895882 -0.409081 4.463495
Head -63.340833 5.727906 -0.966332
LeftShoulder -21.348773 -60.303807 52.750807
LeftArm 28.018518 -43.385041 12.484553
LeftForeArm -23.380535 0.000000 10.634005
LeftHand -3.845394 0.000000 96.829768
LeftHandThumb1 -26.253704 0.000000 33.147579
RightShoulder -11.455788 25.506926 -38.409624
RightArm -4.213432 73.012668 -36.458625
RightForeArm -14.559052 0.000000 15.568019
RightHand -2.019417 0.000000 -101.787848
RightHandThumb1 -24.326973 -0.000000 -32.862282
LeftUpLeg 10.063605 5.135984 10.827044
LeftLeg 86.312423 -0.000000 -0.000000
LeftFoot -41.215526 26.430673 -16.735419
LeftToeBase 23.603750 -0.000000 -0.000000
RightUpLeg 10.228524 4.588018 -10.529149
RightLeg 85.352868 -0.000000 -0.000000
RightFoot -40.751347 -30.633037 23.938962
RightToeBase 21.044542 -0.000000 -0.000000
835
root 27.352784 24.591653 -25.631261 -71.972985 92.257438 2.338090
Spine -48.929681 -0.392599 4.503590
Head -63.148460 5.734199 -0.911988
LeftShoulder -21.332395 -60.312905 52.754168
LeftArm 27.980086 -43.281898 12.418497
LeftForeArm -23.347598 0.000000 10.726547
LeftHand -3.894129 -0.000000 96.829585
LeftHandThumb1 -26.253704 0.000000 33.147579
RightShoulder -11.428365 25.633107 -38.376719
RightArm -3.502844 72.985689 -35.830422
RightForeArm -14.615036 -0.000000 15.672415
RightHand -1.865247 -0.000000 -101.722696
RightHandThumb1 -24.326973 -0.000000 -32.862282
LeftUpLeg 10.091626 5.157946 10.824824
LeftLeg 86.344853 -0.000000 -0.000000
LeftFoot -41.285839 26.466057 -16.774318
LeftToeBase 23.616946 -0.000000 -0.000000
RightUpLeg 10.245095 4.630375 -10.506434
RightLeg 85.419816 -0.000000 -0.000000
RightFoot -40.752819 -30.691114 23.957058
RightToeBase 20.810761 -0.000000 -0.000000
836
root 27.372773 24.584430 -25.630036 -72.196841 92.273323 2.106110
Spine -48.967004 -0.384398 4.496117
Head -63.052019 5.798756 -0.807477
LeftShoulder -21.441365 -60.314109 52.846738
LeftArm 28.102711 -43.177109 12.223728
LeftForeArm -23.390111 -0.000000 10.705249
LeftHand -3.866025 -0.000000 96.922970
LeftHandThumb1 -26.253704 0.000000 33.147579
RightShoulder -11.429719 25.637179 -38.318786
RightArm -3.068836 73.073995 -35.424326
RightForeArm -14.755136 0.000000 15.813466
RightHand -1.795783 -0.000000 -101.642494
RightHandThumb1 -24.326973 -0.000000 -32.862282
LeftUpLeg 10.086511 5.148185 10.818740
LeftLeg 86.414102 -0.000000 -0.000000
LeftFoot -41.334562 26.410998 -16.790978
LeftToeBase 23.619419 -0.000000 -0.000000
RightUpLeg 10.236638 4.655218 -10.492817
RightLeg 85.489400 -0.000000 -0.000000
RightFoot -40.907722 -30.686929 24.065073
RightToeBase 20.967376 -0.000000 -0.000000
837
root 27.392478 24.575811 -25.630161 -72.752451 92.302422 1.544421
Spine -48.992105 -0.359541 4.475610
Head -62.897994 5.859183 -0.793102
LeftShoulder -21.410843 -60.186268 52.775425
LeftArm 28.138882 -43.228985 12.111248
LeftForeArm -23.358687 -0.000000 10.717031
LeftHand -3.948083 -0.000000 96.925057
LeftHandThumb1 -26.253704 0.000000 33.147579
RightShoulder -11.348021 25.495502 -38.276398
RightArm -3.373930 73.113548 -35.657640
RightForeArm -14.813938 0.000000 16.028768
RightHand -1.734627 0.000000 -101.573832
RightHandThumb1 -24.326973 -0.000000 -32.862282
LeftUpLeg 10.087852 5.156888 10.794400
LeftLeg 86.469016 -0.000000 -0.000000
LeftFoot -41.385719 26.414330 -16.778200
LeftToeBase 23.715814 -0.000000 -0.000000
RightUpLeg 10.228049 4.681827 -10.510847
RightLeg 85.570156 -0.000000 -0.000000
RightFoot -40.966873 -30.707630 24.101011
RightToeBase 20.880677 -0.000000 -0.000000
838
root 27.417308 24.567178 -25.624787 -71.776811 92.317413 2.554654
Spine -48.977034 -0.392214 4.468036
Head -62.765233 5.783722 -0.705955
LeftShoulder -21.475941 -60.201985 52.818053
LeftArm 28.277101 -43.145261 11.882816
LeftForeArm -23.338386 -0.000000 10.715770
LeftHand -3.546534 -0.000000 96.988051
LeftHandThumb1 -26.253704 0.000000 33.147579
RightShoulder -11.384506 25.493532 -38.247368
RightArm -2.915457 73.213992 -35.166557
RightForeArm -14.990566 -0.000000 16.262003
RightHand -1.742874 -0.000000 -101.502615
RightHandThumb1 -24.326973 -0.000000 -32.862282
LeftUpLeg 10.109358 5.102728 10.831292
LeftLeg 86.554461 -0.000000 -0.000000
LeftFoot -41.450814 26.376151 -16.787155
LeftToeBase 23.681969 -0.000000 -0.000000
RightUpLeg 10.289226 4.660040 -10.473698
RightLeg 85.638155 -0.000000 -0.000000
RightFoot -41.055094 -30.719464 24.111325
RightToeBase 21.070787 -0.000000 -0.000000
839
root 27.439203 24.557568 -25.617991 -70.949288 92.324111 3.411114
Spine -48.965418 -0.407370 4.455958
Head -62.565168 5.781572 -0.606758
LeftShoulder -21.406723 -60.177321 52.724721
LeftArm 28.299071 -43.071982 11.846925
LeftForeArm -23.431161 -0.000000 10.724767
LeftHand -3.720032 -0.000000 97.105944
LeftHandThumb1 -26.253704 0.000000 33.147579
RightShoulder -11.359482 25.518052 -38.222481
RightArm -2.724740 73.073032 -34.985788
RightForeArm -15.024659 0.000000 16.395578
RightHand -1.806378 0.000000 -101.502470
RightHandThumb1 -24.326973 -0.000000 -32.862282
LeftUpLeg 10.124204 5.067275 10.883627
LeftLeg 86.629263 -0.000000 -0.000000
LeftFoot -41.509732 26.366115 -16.774530
LeftToeBase 23.780982 -0.000000 -0.000000
RightUpLeg 10.340101 4.651654 -10.423871
RightLeg 85.695611 -0.000000 -0.000000
RightFoot -41.067634 -30.838250 24.081063
RightToeBase 20.742537 -0.000000 -0.000000
840
root 27.458896 24.546183 -25.616167 -71.287855 92.327859 3.067409
Spine -49.002507 -0.365372 4.466215
Head -62.339523 5.644680 -0.515909
LeftShoulder -21.202456 -60.047385 52.521703
LeftArm 28.176596 -43.216763 11.819289
LeftForeArm -23.404350 -0.000000 10.897501
LeftHand -4.032830 -0.000000 97.222815
LeftHandThumb1 -26.253704 0.000000 33.147579
RightShoulder -11.293980 25.463496 -38.196364
RightArm -2.615425 72.954978 -34.907584
RightForeArm -15.059163 -0.000000 16.445417
RightHand -1.781685 -0.000000 -101.074551
RightHandThumb1 -24.326973 -0.000000 -32.862282
LeftUpLeg 10.116008 5.074744 10.890591
LeftLeg 86.699624 -0.000000 -0.000000
LeftFoot -41.573987 26.359562 -16.796586
LeftToeBase 23.766279 -0.000000 -0.000000
RightUpLeg 10.314074 4.669691 -10.425806
RightLeg 85.785344 -0.000000 -0.000000
RightFoot -41.182538 -30.818873 24.156576
RightToeBase 20.902005 -0.000000 -0.000000
841
root 27.480997 24.533212 -25.613778 -71.505898 92.339747 2.859765
Spine -49.012838 -0.348331 4.465294
Head -62.159747 5.619211 -0.443650
LeftShoulder -21.166317 -60.105858 52.523943
LeftArm 28.107001 -43.152713 11.703075
LeftForeArm -23.292093 -0.000000 11.126679
LeftHand -4.069283 -0.000000 97.311192
LeftHandThumb1 -26.253704 0.000000 33.147579
RightShoulder -11.266773 25.476082 -38.188680
RightArm -2.303361 72.889313 -34.616831
RightForeArm -15.126906 -0.000000 16.462658
RightHand -1.707300 -0.000000 -101.145721
RightHandThumb1 -24.326973 -0.000000 -32.862282
LeftUpLeg 10.115080 5.068931 10.893015
LeftLeg 86.784123 -0.000000 -0.000000
LeftFoot -41.643592 26.348130 -16.810073
LeftToeBase 23.811589 -0.000000 -0.000000
RightUpLeg 10.315416 4.674523 -10.435735
RightLeg 85.875751 -0.000000 -0.000000
RightFoot -41.175470 -30.891856 24.071714
RightToeBase 20.931425 -0.000000 -0.000000
842
root 27.499810 24.517504 -25.615997 -72.722890 92.393708 1.621077
Spine -49.059794 -0.294504 4.395551
Head -62.006535 5.532395 -0.264343
LeftShoulder -21.085405 -60.156191 52.487929
LeftArm 28.030913 -43.104239 11.593670
LeftForeArm -23.201069 0.000000 11.331988
LeftHand -3.989626 -0.000000 97.399379
LeftHandThumb1 -26.253704 0.000000 33.147579
RightShoulder -11.249730 25.402032 -38.195842
RightArm -2.191353 72.898489 -34.458317
RightForeArm -15.142820 0.000000 16.610822
RightHand -1.690574 -0.000000 -101.251177
RightHandThumb1 -24.326973 -0.000000 -32.862282
LeftUpLeg 10.081500 5.096457 10.811439
LeftLeg 86.857781 -0.000000 -0.000000
LeftFoot -41.710362 26.372958 -16.838554
LeftToeBase 23.877418 -0.000000 -0.000000
RightUpLeg 10.252177 4.699735 -10.531267
RightLeg 85.998971 -0.000000 -0.000000
RightFoot -41.232579 -30.866015 24.101082
RightToeBase 20.877848 -0.000000 -0.000000
843
root 27.522743 24.502135 -25.609676 -72.018317 92.407046 2.425402
Spine -48.933048 -0.335812 4.391709
Head -61.988497 5.538180 -0.202721
LeftShoulder -20.871398 -60.043956 52.266470
LeftArm 27.896535 -43.318042 11.599889
LeftForeArm -23.087740 -0.000000 11.574940
LeftHand -3.929876 -0.000000 97.493958
LeftHandThumb1 -26.253704 0.000000 33.147579
RightShoulder -11.211373 25.254505 -38.132543
RightArm -2.475491 73.079008 -34.698011
RightForeArm -15.207419 -0.000000 16.821785
RightHand -1.645104 -0.000000 -101.349284
RightHandThumb1 -24.326973 -0.000000 -32.862282
LeftUpLeg 10.143692 5.035340 10.849592
LeftLeg 86.967754 -0.000000 -0.000000
LeftFoot -41.789521 26.340228 -16.872072
LeftToeBase 23.865915 -0.000000 -0.000000
RightUpLeg 10.350970 4.675636 -10.517277
RightLeg 86.091386 -0.000000 -0.000000
RightFoot -41.322593 -30.898435 24.126432
RightToeBase 20.818843 -0.000000 -0.000000
844
root 27.544627 24.485097 -25.603486 -72.073288 92.413144 2.417560
Spine -48.886951 -0.352313 4.395837
Head -61.835080 5.540414 -0.149117
LeftShoulder -20.711362 -59.993047 52.128043
LeftArm 27.808649 -43.409227 11.562889
LeftForeArm -22.972601 -0.000000 11.769202
LeftHand -3.854020 -0.000000 97.607777
LeftHandThumb1 -26.253704 0.000000 33.147579
RightShoulder -11.175294 25.290387 -38.111393
RightArm -2.223173 73.219242 -34.372309
RightForeArm -15.373218 -0.000000 17.122634
RightHand -1.850908 -0.000000 -101.491891
RightHandThumb1 -24.326973 -0.000000 -32.862282
LeftUpLeg 10.167565 5.022012 10.884509
LeftLeg 87.070162 -0.000000 -0.000000
LeftFoot -41.874730 26.307045 -16.868373
LeftToeBase 23.967697 -0.000000 -0.000000
RightUpLeg 10.374152 4.684580 -10.510429
RightLeg 86.200054 -0.000000 -0.000000
RightFoot -41.419309 -30.929300 24.152003
RightToeBase 20.859780 -0.000000 -0.000000
845
root 27.566308 24.466409 -25.597370 -72.360879 92.429385 2.150823
Spine -48.905733 -0.374319 4.393563
Head -61.569129 5.505715 -0.052839
LeftShoulder -20.600598 -60.041356 52.037676
LeftArm 27.859459 -43.411167 11.413950
LeftForeArm -22.791859 -0.000000 11.945860
LeftHand -3.801152 -0.000000 97.717701
LeftHandThumb1 -26.253704 0.000000 33.147579
RightShoulder -11.118162 25.421867 -38.076474
RightArm -1.606895 73.491157 -33.691406
RightForeArm -15.717684 -0.000000 17.448751
RightHand -1.920876 -0.000000 -101.972931
RightHandThumb1 -24.326973 -0.000000 -32.862282
LeftUpLeg 10.162202 5.019934 10.900211
LeftLeg 87.175804 -0.000000 -0.000000
LeftFoot -41.941730 26.292596 -16.867597
LeftToeBase 23.957274 -0.000000 -0.000000
RightUpLeg 10.357458 4.690351 -10.525998
RightLeg 86.331034 -0.000000 -0.000000
RightFoot -41.484349 -30.869941 24.218808
RightToeBase 20.807568 -0.000000 -0.000000
